<svg width="244" height="43" viewBox="0 0 244 43" fill="none" xmlns="http://www.w3.org/2000/svg">
<path fill-rule="evenodd" clip-rule="evenodd" d="M27.6293 42.9086C27.9072 42.8355 28.3169 42.1479 28.3169 41.7236C28.3169 41.1824 29.2093 39.6462 29.8676 39.0757C30.6576 38.3881 32.9106 37.364 34.0663 37.1885C35.2074 37.0129 36.2461 37.2031 37.4604 37.8175C38.3089 38.2564 38.5576 38.3296 38.8502 38.2125C39.333 38.0224 42.215 35.0818 42.215 34.7746C42.215 34.6429 41.9663 34.0724 41.6591 33.4872C41.1763 32.5509 41.1178 32.3022 41.0739 31.1611C41.0154 29.9029 41.03 29.8444 41.7176 28.2205C42.2589 26.9185 42.5661 26.4064 43.1074 25.8652C43.8682 25.1044 44.702 24.6216 45.5359 24.49C46.1796 24.3876 46.4869 24.1974 46.7209 23.7439C46.955 23.3196 46.955 19.6915 46.7209 19.2672C46.5161 18.8576 46.165 18.5942 45.8432 18.5796C45.6969 18.5796 45.2141 18.4479 44.7752 18.2724C43.4585 17.7896 42.5515 16.7655 41.7615 14.9076C41.147 13.4592 41.1178 13.3129 41.1178 11.9817C41.1178 10.6504 41.147 10.5333 41.6883 9.47999C42.0541 8.77777 42.215 8.28036 42.1565 8.09017C42.1126 7.94388 41.3519 7.10999 40.4741 6.24684C38.7332 4.52055 38.5137 4.43277 37.6798 5.04721C36.8752 5.6324 35.895 5.89573 34.6369 5.82258C33.7006 5.77869 33.2471 5.66166 31.9743 5.12036C30.7308 4.5937 30.2919 4.33036 29.6774 3.70129C28.946 2.95518 28.3169 1.71166 28.3169 1.00944C28.3169 0.848516 28.156 0.555924 27.9511 0.365739C27.6604 0.062387 27.5663 0.0102051 26.1591 0.00162197V0H25.391H25.39H19.0312V9.58396H24.6832C28.0278 9.65145 28.5811 9.81665 30.3211 10.6065C36.0413 13.2252 38.7917 19.7792 36.5972 25.6018C35.9828 27.2842 35.3391 28.3229 34.1833 29.5811C32.6034 31.2927 30.7015 32.4631 28.4193 33.0922C27.7127 33.3019 27.1728 33.3701 25.1022 33.416H19.0312V34.4342C19.0301 34.4849 19.0303 34.5392 19.0312 34.5981V43H24.5067H24.6071H26.1591V42.982C26.9244 42.9656 27.521 42.9411 27.6293 42.9086ZM14.2369 39.3277C15.1294 38.9377 15.6019 37.8503 15.3019 36.8678C15.1969 36.5078 14.6569 35.8928 14.3419 35.7578L14.1169 35.6678V33.6803C14.1169 31.4828 14.1394 31.3403 14.5744 31.1903C14.7244 31.1378 15.5194 31.1078 16.7269 31.1078H18.6394V31.9681L19.9069 31.9681L19.9218 31.966V30.4214C19.9136 30.4231 19.9086 30.4244 19.9069 30.4253C19.8994 30.4328 19.8919 26.4203 19.8919 21.5228L19.8919 12.6053L19.9218 12.6094V11.2607L19.9152 11.2599H18.6394V11.9078H16.7719C15.7069 11.9078 14.7844 11.8703 14.6269 11.8253C14.1394 11.6978 14.1169 11.5853 14.1169 9.33534L14.1169 7.34785L14.3419 7.25785C14.6569 7.12285 15.1969 6.50785 15.3019 6.14785C15.5344 5.38285 15.3094 4.52786 14.7544 4.04036C14.3569 3.69536 14.0269 3.57536 13.4644 3.56786C12.8794 3.56786 12.2869 3.83036 11.9419 4.24286C11.6944 4.54286 11.4919 5.11285 11.4919 5.49535C11.4919 6.16285 11.9194 6.90535 12.4744 7.18285L12.7669 7.33285L12.7669 9.41784C12.7669 10.6028 12.8044 11.6153 12.8419 11.7728C12.9844 12.2828 13.3669 12.7478 13.8469 12.9953L14.2969 13.2203L16.4194 13.2428L18.5419 13.2728V13.8653V14.4578H14.8819H11.2144L11.0569 14.6303C10.8169 14.8853 10.8319 15.3503 11.0869 15.5903L11.2819 15.7703L14.9119 15.7928L18.5419 15.8153V16.7078V17.6078H13.3294H8.10942L7.92942 17.4203L7.74192 17.2403L7.74192 15.4778V15.4778C7.74192 13.7528 7.74192 13.7153 7.89942 13.6703C8.14691 13.5878 8.63441 13.1153 8.81441 12.7778C8.93441 12.5453 8.97941 12.3353 8.97941 11.9078C8.97941 11.4278 8.94941 11.2928 8.76191 10.9478C7.83192 9.27534 5.28942 9.80784 5.13943 11.7128C5.07193 12.5453 5.49192 13.3478 6.15942 13.6403L6.39192 13.7453V15.5453C6.39192 16.5503 6.42942 17.4653 6.46692 17.6228C6.58692 18.0503 6.98442 18.5153 7.43442 18.7478L7.83192 18.9578H13.1869H18.5419V19.8953V20.8328H11.1544H3.76693L3.69943 20.6603C3.39193 19.8503 2.22943 19.3628 1.32194 19.6628C0.189439 20.0378 -0.328061 21.3278 0.219438 22.4153C0.826936 23.6078 2.50693 23.8178 3.38443 22.8128C3.51943 22.6628 3.66193 22.4603 3.70693 22.3628L3.78943 22.1828L11.1694 22.1828H18.5419V23.1203V24.0578H13.1869H7.83192L7.43442 24.2678C6.98442 24.5003 6.58692 24.9653 6.46692 25.3928C6.42942 25.5503 6.39192 26.4653 6.39192 27.4703V29.2703L6.15942 29.3753C5.87442 29.5028 5.46192 29.9078 5.29692 30.2228C5.13192 30.5378 5.07942 31.2878 5.18442 31.6778C5.38692 32.4353 6.05442 32.9753 6.87192 33.0353C7.71941 33.1103 8.37191 32.7728 8.76191 32.0678C8.94941 31.7228 8.97941 31.5878 8.97941 31.1078C8.97941 30.6803 8.93441 30.4703 8.81441 30.2378C8.63441 29.9003 8.14691 29.4278 7.89941 29.3453C7.74192 29.3003 7.74192 29.2628 7.74192 27.5378V27.5378V25.7753L7.92941 25.5953L8.10942 25.4078H13.3294H18.5419V26.3078V27.2078L14.9719 27.2078C12.4069 27.2078 11.3644 27.2303 11.2444 27.2978C10.9894 27.4328 10.8994 27.5978 10.8919 27.9353C10.8919 28.1828 10.9294 28.2803 11.0869 28.4003C11.2819 28.5578 11.3569 28.5578 14.9119 28.5578H18.5419V29.1503V29.7428L16.4194 29.7728L14.3044 29.7953L13.8694 30.0128C13.3669 30.2528 12.9769 30.7253 12.8494 31.2353C12.7969 31.4153 12.7669 32.4053 12.7669 33.6128V35.6753L12.5044 35.8028C11.9569 36.0578 11.4919 36.8528 11.4919 37.5203C11.4919 37.9028 11.6944 38.4728 11.9419 38.7728C12.2944 39.2002 12.8419 39.4328 13.4719 39.4328C13.7644 39.4253 14.1094 39.3802 14.2369 39.3277ZM13.0669 37.9328C12.7369 37.6028 12.8344 37.1153 13.2619 36.9578C13.5244 36.8528 13.5544 36.8603 13.8094 37.0778C14.1019 37.3253 14.1169 37.6328 13.8544 37.8953C13.6294 38.1278 13.2769 38.1428 13.0669 37.9328ZM6.65442 31.5203C6.53442 31.4078 6.46692 31.2503 6.46692 31.1078C6.46692 30.8378 6.75192 30.5078 6.98442 30.5078C7.34442 30.5078 7.66692 30.8153 7.66692 31.1528C7.66692 31.3403 7.24692 31.7078 7.02942 31.7078C6.92442 31.7078 6.75192 31.6253 6.65442 31.5203ZM1.55444 21.9203C1.43444 21.8078 1.36694 21.6503 1.36694 21.5078C1.36694 21.2228 1.65944 20.9078 1.92193 20.9078C2.21443 20.9078 2.51443 21.2153 2.51443 21.5078C2.51443 21.6878 2.46193 21.8078 2.31193 21.9353C2.04943 22.1603 1.77943 22.1528 1.55444 21.9203ZM6.65442 12.3203C6.53442 12.2078 6.46692 12.0503 6.46692 11.9078C6.46692 11.6378 6.75192 11.3078 6.98442 11.3078C7.34442 11.3078 7.66692 11.6153 7.66692 11.9528C7.66692 12.1403 7.24692 12.5078 7.02942 12.5078C6.92442 12.5078 6.75192 12.4253 6.65442 12.3203ZM13.0519 5.93035C12.8644 5.76535 12.8269 5.48035 12.9469 5.24035C13.1344 4.88035 13.5619 4.82035 13.8544 5.12035C14.1244 5.38285 14.1019 5.69035 13.8019 5.94535C13.5469 6.15535 13.2994 6.15535 13.0519 5.93035Z" fill="url(#paint0_linear_2582_94)"/>
<path d="M222.12 34.4573L228.975 25.3048L222.579 16.647H229.364L231.979 20.4635C232.238 20.864 232.45 21.4176 232.615 22.1244L232.686 22.5837L232.756 22.1244C232.827 21.7945 232.898 21.5118 232.969 21.2762C233.039 21.0407 233.169 20.7697 233.357 20.4635L235.972 16.647H242.792L236.361 25.3048L243.217 34.4573H236.22L233.393 30.3228C233.298 30.205 233.204 30.0518 233.11 29.8634C233.039 29.6513 232.957 29.3804 232.863 29.0506L232.686 28.0611L232.474 29.0506C232.38 29.404 232.297 29.6631 232.226 29.828C232.156 29.9929 232.062 30.1578 231.944 30.3228L229.152 34.4573H222.12Z" fill="#367EA2"/>
<path d="M222.504 23.361L210.807 29.3331L211.125 29.6159C211.95 30.3462 212.845 30.7113 213.811 30.7113C214.989 30.7113 216.025 30.1459 216.921 29.0151L217.203 28.6264L221.055 30.9587L220.384 31.8421C218.428 34.0095 216.002 35.0932 213.104 35.0932C211.22 35.0932 209.17 34.3747 206.955 32.9376C204.741 31.477 203.634 29.074 203.634 25.7287C203.634 25.3753 203.634 25.0101 203.634 24.6332C203.704 24.2798 203.834 23.5142 204.022 22.3362C204.234 21.1347 205.224 19.8037 206.991 18.3431C208.781 16.8824 210.819 16.1521 213.104 16.1521C213.316 16.1521 213.516 16.1639 213.705 16.1874C213.917 16.1874 214.977 16.3641 216.885 16.7175C218.794 17.0709 220.502 18.8613 222.009 22.0889L222.504 23.361ZM216.673 21.8415C216.202 21.0405 215.566 20.5811 214.765 20.4633C213.964 20.322 213.493 20.2513 213.352 20.2513C211.726 20.2513 210.548 20.8167 209.818 21.9475C209.111 23.0548 208.758 23.9618 208.758 24.6685C208.758 25.0455 208.828 25.3989 208.97 25.7287L216.673 21.8415Z" fill="#367EA2"/>
<path d="M194.627 18.3786V11.311L200.458 8.27197V34.4574H194.91V32.4785C194.18 33.5857 193.202 34.2807 191.977 34.5634C190.752 34.8461 189.845 34.9875 189.256 34.9875C187.301 34.9875 185.604 34.2925 184.167 32.9025C182.754 31.5126 181.941 30.1579 181.729 28.8386C181.541 27.4958 181.435 26.6477 181.411 26.2943C181.387 25.9409 181.376 25.6111 181.376 25.3049C181.376 22.9961 181.965 21.0407 183.143 19.4388C184.32 17.8132 185.44 16.8827 186.5 16.6471C187.56 16.4115 188.231 16.2819 188.514 16.2583C188.797 16.2348 189.103 16.223 189.433 16.223C191.247 16.223 192.86 16.8238 194.274 18.0252L194.627 18.3786ZM187.383 25.2695C187.383 26.5652 187.654 27.6254 188.196 28.4499C188.761 29.2745 189.35 29.7574 189.963 29.8988C190.575 30.0401 191.035 30.1108 191.341 30.1108C192.283 30.1108 193.061 29.7928 193.673 29.1567C194.309 28.4971 194.627 27.6254 194.627 26.5417C194.627 24.5392 194.439 23.1492 194.062 22.3718C193.709 21.5708 193.19 21.0996 192.507 20.9583C191.824 20.7934 191.353 20.7109 191.094 20.7109C190.033 20.7109 189.15 21.1232 188.443 21.9478C187.736 22.7723 187.383 23.8796 187.383 25.2695Z" fill="#367EA2"/>
<path d="M172.37 18.3786V11.311L178.2 8.27197V34.4574H172.652V32.4785C171.922 33.5857 170.944 34.2807 169.719 34.5634C168.494 34.8461 167.587 34.9875 166.998 34.9875C165.043 34.9875 163.347 34.2925 161.91 32.9025C160.496 31.5126 159.683 30.1579 159.471 28.8386C159.283 27.4958 159.177 26.6477 159.153 26.2943C159.13 25.9409 159.118 25.6111 159.118 25.3049C159.118 22.9961 159.707 21.0407 160.885 19.4388C162.063 17.8132 163.182 16.8827 164.242 16.6471C165.302 16.4115 165.973 16.2819 166.256 16.2583C166.539 16.2348 166.845 16.223 167.175 16.223C168.989 16.223 170.603 16.8238 172.016 18.0252L172.37 18.3786ZM165.125 25.2695C165.125 26.5652 165.396 27.6254 165.938 28.4499C166.503 29.2745 167.092 29.7574 167.705 29.8988C168.317 30.0401 168.777 30.1108 169.083 30.1108C170.025 30.1108 170.803 29.7928 171.415 29.1567C172.052 28.4971 172.37 27.6254 172.37 26.5417C172.37 24.5392 172.181 23.1492 171.804 22.3718C171.451 21.5708 170.932 21.0996 170.249 20.9583C169.566 20.7934 169.095 20.7109 168.836 20.7109C167.776 20.7109 166.892 21.1232 166.185 21.9478C165.479 22.7723 165.125 23.8796 165.125 25.2695Z" fill="#367EA2"/>
<path d="M126.488 34.4574V11.311L132.319 8.27197V34.4574H126.488Z" fill="#367EA2"/>
<path d="M117.06 18.5551V16.6468H122.608V34.4572H117.06V32.4429C116.542 33.2203 115.811 33.8329 114.869 34.2805C113.927 34.7281 112.819 34.9519 111.547 34.9519C109.451 34.9519 107.707 34.3276 106.317 33.079C104.927 31.8304 104.115 30.4286 103.879 28.8738C103.643 27.3189 103.514 26.4119 103.49 26.1527C103.49 25.8936 103.49 25.6816 103.49 25.5167C103.49 23.1844 104.079 21.2054 105.257 19.5799C106.459 17.9543 107.601 17.012 108.685 16.7528C109.769 16.4937 110.452 16.3524 110.735 16.3288C111.017 16.3052 111.347 16.2935 111.724 16.2935C112.124 16.2935 112.89 16.3877 114.021 16.5762C115.175 16.7646 116.188 17.4243 117.06 18.5551ZM109.498 25.5167C109.498 25.9172 109.58 26.7181 109.745 27.9196C109.91 29.0976 110.487 29.769 111.477 29.9339C112.466 30.0753 113.149 30.1459 113.526 30.1459C115.67 30.1459 116.742 28.5675 116.742 25.4106C116.742 23.9736 116.542 22.9134 116.141 22.2302C115.741 21.547 115.069 21.0994 114.127 20.8874L113.279 20.7814C112.336 20.7814 111.524 21.123 110.841 21.8062C110.157 22.4658 109.733 23.3846 109.568 24.5625C109.521 24.7274 109.498 24.9041 109.498 25.0926C109.498 25.2811 109.498 25.4224 109.498 25.5167Z" fill="#367EA2"/>
<path d="M149.57 18.5551V16.6468H155.118V34.4572H149.57V32.4429C149.051 33.2203 148.321 33.8329 147.379 34.2805C146.436 34.7281 145.329 34.9519 144.057 34.9519C141.96 34.9519 140.217 34.3276 138.827 33.079C137.437 31.8304 136.624 30.4286 136.389 28.8738C136.153 27.3189 136.024 26.4119 136 26.1527C136 25.8936 136 25.6816 136 25.5167C136 23.1844 136.589 21.2054 137.767 19.5799C138.968 17.9543 140.111 17.012 141.195 16.7528C142.278 16.4937 142.962 16.3524 143.244 16.3288C143.527 16.3052 143.857 16.2935 144.234 16.2935C144.634 16.2935 145.4 16.3877 146.531 16.5762C147.685 16.7646 148.698 17.4243 149.57 18.5551ZM142.007 25.5167C142.007 25.9172 142.09 26.7181 142.255 27.9196C142.42 29.0976 142.997 29.769 143.986 29.9339C144.976 30.0753 145.659 30.1459 146.036 30.1459C148.18 30.1459 149.252 28.5675 149.252 25.4106C149.252 23.9736 149.051 22.9134 148.651 22.2302C148.25 21.547 147.579 21.0994 146.637 20.8874L145.789 20.7814C144.846 20.7814 144.033 21.123 143.35 21.8062C142.667 22.4658 142.243 23.3846 142.078 24.5625C142.031 24.7274 142.007 24.9041 142.007 25.0926C142.007 25.2811 142.007 25.4224 142.007 25.5167Z" fill="#367EA2"/>
<path d="M90.8612 21.241L99.413 9.65015V16.6471H103.194L101.675 21.241H99.413V34.4574H93.5822V21.241H90.8612Z" fill="#367EA2"/>
<path d="M83.4189 34.4571V18.9791L89.2496 15.9754V34.4571H83.4189ZM83.2422 12.0882C83.2422 11.193 83.5484 10.4273 84.161 9.79122C84.7971 9.13158 85.5627 8.80176 86.4579 8.80176C87.3532 8.80176 88.1188 9.1198 88.7549 9.75588C89.391 10.392 89.709 11.1576 89.709 12.0528C89.709 12.9245 89.391 13.6784 88.7549 14.3145C88.1188 14.9506 87.3885 15.2686 86.564 15.2686C85.6687 15.2686 84.8913 14.9623 84.2316 14.3498C83.572 13.7373 83.2422 12.9834 83.2422 12.0882Z" fill="#367EA2"/>
<path d="M74.1257 18.4495V16.6473H79.6737V33.3974C79.6737 35.8475 78.8256 37.8029 77.1294 39.2635C75.4332 40.7242 72.9477 41.4545 69.6731 41.4545C69.0135 41.4545 68.1182 41.3956 66.9874 41.2778C65.8566 41.1836 64.7729 40.9244 63.7363 40.5004C62.7233 40.0763 61.9341 39.6876 61.3687 39.3342L63.5596 35.4117C64.9025 36.4483 66.5516 37.049 68.5069 37.2139C72.2528 37.2139 74.1257 36.036 74.1257 33.6801V31.9486C73.5838 32.726 72.8535 33.3385 71.9347 33.7862C71.0159 34.2102 69.944 34.4222 68.719 34.4222C68.2714 34.4222 67.4468 34.3398 66.2453 34.1749C65.0674 33.9864 63.8423 33.1147 62.5702 31.5599C61.3216 29.9814 60.6973 28.0143 60.6973 25.6584C60.6973 23.5146 61.1331 21.6888 62.0048 20.1811C62.8764 18.6733 63.9601 17.6485 65.2559 17.1067C66.5516 16.5412 67.7649 16.2585 68.8957 16.2585C70.9924 16.2585 72.7357 16.9889 74.1257 18.4495ZM66.6694 25.6584C66.6694 26.8599 66.9403 27.8376 67.4821 28.5915C68.024 29.3454 68.6012 29.793 69.2137 29.9343C69.8262 30.0521 70.3092 30.111 70.6626 30.111C71.652 30.111 72.4295 29.7812 72.9949 29.1216C73.5838 28.4384 73.8783 27.5078 73.8783 26.3299C73.8783 24.3745 73.7016 23.0317 73.3482 22.3013C73.0184 21.5475 72.5237 21.0998 71.8641 20.9585C71.2044 20.7936 70.7332 20.7111 70.4505 20.7111C69.3668 20.7111 68.4598 21.1705 67.7295 22.0893C67.0228 22.9845 66.6694 24.1742 66.6694 25.6584Z" fill="#367EA2"/>
<path d="M51.8762 34.4571V18.9791L57.7069 15.9754V34.4571H51.8762ZM51.6995 12.0882C51.6995 11.193 52.0057 10.4273 52.6182 9.79122C53.2543 9.13158 54.02 8.80176 54.9152 8.80176C55.8104 8.80176 56.5761 9.1198 57.2122 9.75588C57.8483 10.392 58.1663 11.1576 58.1663 12.0528C58.1663 12.9245 57.8483 13.6784 57.2122 14.3145C56.5761 14.9506 55.8458 15.2686 55.0212 15.2686C54.126 15.2686 53.3486 14.9623 52.6889 14.3498C52.0293 13.7373 51.6995 12.9834 51.6995 12.0882Z" fill="#367EA2"/>
<defs>
<linearGradient id="paint0_linear_2582_94" x1="46.8965" y1="2.62874e-06" x2="-3.98089" y2="40.8994" gradientUnits="userSpaceOnUse">
<stop stop-color="#4E77A8"/>
<stop offset="1" stop-color="#019C89"/>
</linearGradient>
</defs>
</svg>
